<?xml version="1.0" standalone="no"?>
<!DOCTYPE svg PUBLIC "-//W3C//DTD SVG 20010904//EN"
 "http://www.w3.org/TR/2001/REC-SVG-20010904/DTD/svg10.dtd">
<svg version="1.0" xmlns="http://www.w3.org/2000/svg"
 width="300.000000pt" height="300.000000pt" viewBox="0 0 300.000000 300.000000"
 preserveAspectRatio="xMidYMid meet">

<g transform="translate(0.000000,300.000000) scale(0.100000,-0.100000)"
fill="#000000" stroke="none">
<path d="M277 2989 c-103 -24 -197 -103 -244 -204 l-28 -60 0 -1225 0 -1225
26 -56 c51 -107 138 -180 248 -205 83 -20 2359 -20 2442 0 138 32 238 135 268
274 17 83 15 2358 -3 2433 -25 110 -98 197 -205 248 l-56 26 -1205 2 c-680 0
-1221 -3 -1243 -8z m1065 -859 c144 -192 265 -350 269 -350 4 0 153 157 331
350 l323 349 88 1 c48 0 87 -2 87 -6 0 -3 -166 -185 -370 -404 -204 -220 -370
-404 -370 -409 0 -6 187 -260 415 -565 228 -305 415 -559 415 -565 0 -8 -95
-11 -303 -11 l-303 0 -288 386 -288 386 -27 -31 c-14 -17 -174 -190 -356 -386
l-329 -355 -83 0 c-46 0 -83 4 -83 9 0 6 178 202 395 436 217 235 395 431 395
436 0 4 -178 246 -395 536 -217 290 -395 531 -395 535 0 5 137 8 305 8 l306 0
261 -350z"/>
<path d="M742 2331 c2 -5 282 -383 623 -839 l620 -831 144 0 143 -1 -24 33
c-13 17 -296 395 -628 840 l-604 807 -139 0 c-78 0 -137 -4 -135 -9z"/>
</g>
</svg>
